<svg xmlns="http://www.w3.org/2000/svg" width="170.6929931640625" height="75" style=""><rect id="backgroundrect" width="100%" height="100%" x="0" y="0" fill="none" stroke="none"/><defs><style>.a{fill:none;}.b,.c{fill:#fff;}.c{opacity:0.95;isolation:isolate;}</style></defs><title>logov1.2_itext.io_white_lizsvg</title><g class="currentLayer" style=""><title>Layer 1</title><rect class="a" width="170.6929931640625" height="75" id="svg_1" y="1.1173185110092163" x="0"/><path class="b" d="M30.361,16.7H20.326a1.874,1.874,0,0,1,0-3.748H30.361a1.874,1.874,0,0,1,0,3.748Z" id="svg_2"/><circle class="b" cx="25.3439998626709" cy="57.900001525878906" r="3.3450000286102295" id="svg_3"/><path class="b" d="M36.209,67.837H14.479a7.872,7.872,0,0,1-7.864-7.863V14.485a7.873,7.873,0,0,1,7.864-7.864H36.208a7.873,7.873,0,0,1,7.864,7.864v14.32a1.875,1.875,0,0,1-3.749,0V14.485a4.12,4.12,0,0,0-4.115-4.116H14.479a4.12,4.12,0,0,0-4.116,4.116V59.974a4.12,4.12,0,0,0,4.116,4.115H36.208a1.874,1.874,0,1,1,0,3.748Z" id="svg_4" stroke="#484848" stroke-opacity="1"/><path class="c" d="M58.548,67.458a2.494,2.494,0,0,0-.356.023,2.972,2.972,0,0,1-.4.024,14.671,14.671,0,0,1-2.216-.166,4.286,4.286,0,0,1-1.894-.759,4.156,4.156,0,0,1-1.32-1.733,7.61,7.61,0,0,1-.5-3.038V47.568H49.007a1.527,1.527,0,0,1-.878-.214.942.942,0,0,1-.309-.831V44.767a.881.881,0,0,1,.309-.807,1.685,1.685,0,0,1,.878-.19h2.848V37.077a.915.915,0,0,1,.817-.949L55.12,35.8a.726.726,0,0,1,.744.379,2.108,2.108,0,0,1,.168.855v6.74h3.513q1.044,0,1.044,1.092v1.567q0,1.139-1.044,1.139H56.032V60.29a11.135,11.135,0,0,0,.119,1.851,1.939,1.939,0,0,0,.427,1,1.3,1.3,0,0,0,.783.4,8.26,8.26,0,0,0,1.187.071,1.049,1.049,0,0,1,1.187.89,1.062,1.062,0,0,1,0,.3v1.519Q59.735,67.363,58.548,67.458Zm14.051.19a10.226,10.226,0,0,1-4.367-.95,11.322,11.322,0,0,1-3.56-2.587,12.165,12.165,0,0,1-2.4-3.869,13.268,13.268,0,0,1,0-9.494,12.464,12.464,0,0,1,2.4-3.892,11.144,11.144,0,0,1,3.56-2.611A10.229,10.229,0,0,1,72.6,43.3a9.76,9.76,0,0,1,4.107.879,10.837,10.837,0,0,1,3.37,2.4,11.6,11.6,0,0,1,2.3,3.56,11.2,11.2,0,0,1,.855,4.367v.57q0,1.423-.9,1.8a5.6,5.6,0,0,1-2.184.38H65.574a7.455,7.455,0,0,0,2.4,4.594A6.706,6.706,0,0,0,72.6,63.612a8.434,8.434,0,0,0,2.872-.522,8.538,8.538,0,0,0,2.587-1.471,1.153,1.153,0,0,1,.854-.333.593.593,0,0,1,.522.285l1.329,1.994a.6.6,0,0,1,.19.432.945.945,0,0,1-.308.576,3.27,3.27,0,0,1-.5.384,20.145,20.145,0,0,1-3.466,1.9,10.306,10.306,0,0,1-4.08.791ZM65.764,53.739H79.2a8.687,8.687,0,0,0-.855-2.5,7.994,7.994,0,0,0-1.519-2.05,6.946,6.946,0,0,0-2.018-1.367,5.633,5.633,0,0,0-2.3-.5,5.571,5.571,0,0,0-2.326.5,6.691,6.691,0,0,0-1.97,1.367,8.72,8.72,0,0,0-1.519,2.05A9.3,9.3,0,0,0,65.764,53.739Zm30.427,1.092,7.643,11.2a2.813,2.813,0,0,1,.332.665c0,.254-.253.379-.759.379h-2.848a1.866,1.866,0,0,1-1.425-.806l-5.316-8.308L88.5,66.175a1.768,1.768,0,0,1-1.472.9H84.276q-.807,0-.807-.379a.917.917,0,0,1,.119-.333c.078-.158.166-.316.261-.474l7.595-11.06-7.026-10.3a1.047,1.047,0,0,1-.1-.474c0-.191.174-.285.522-.285h2.943a1.539,1.539,0,0,1,.879.213,3.623,3.623,0,0,1,.736.783L93.817,51.7l4.415-6.978a2.56,2.56,0,0,1,.688-.759,1.7,1.7,0,0,1,.878-.19h2.9q.428,0,.522.285a.629.629,0,0,1-.095.569Zm18.893,12.627a2.494,2.494,0,0,0-.356.023,2.972,2.972,0,0,1-.4.024,14.671,14.671,0,0,1-2.216-.166,4.282,4.282,0,0,1-1.893-.759,4.15,4.15,0,0,1-1.321-1.733,7.61,7.61,0,0,1-.5-3.038V47.568h-2.849a1.527,1.527,0,0,1-.878-.214.948.948,0,0,1-.308-.831V44.767a.881.881,0,0,1,.308-.807,1.7,1.7,0,0,1,.878-.19H108.4V37.077a.915.915,0,0,1,.816-.949l2.449-.332a.724.724,0,0,1,.743.379,2.108,2.108,0,0,1,.169.855v6.74h3.512q1.044,0,1.045,1.092v1.567q0,1.139-1.045,1.139h-3.512V60.29a11.134,11.134,0,0,0,.118,1.851,1.939,1.939,0,0,0,.427,1,1.3,1.3,0,0,0,.784.4,8.26,8.26,0,0,0,1.187.071,1.05,1.05,0,0,1,1.187,1.187v1.519Q116.271,67.364,115.084,67.458Zm4.556-2.612a2.919,2.919,0,0,1,.855-2.112,2.8,2.8,0,0,1,2.088-.878,2.858,2.858,0,0,1,2.136.878,3.037,3.037,0,0,1,0,4.225,2.858,2.858,0,0,1-2.136.878,2.8,2.8,0,0,1-2.088-.878A2.918,2.918,0,0,1,119.64,64.846Zm10.681-27.6a2.844,2.844,0,0,1,.878-2.095,2.979,2.979,0,0,1,5.1,2.095,2.809,2.809,0,0,1-.855,2.072,3.087,3.087,0,0,1-4.248,0,2.765,2.765,0,0,1-.875-2.075Zm5.031,7.571V66.033a.922.922,0,0,1-.781,1.044.892.892,0,0,1-.263,0h-1.994a.922.922,0,0,1-1.044-.781.892.892,0,0,1,0-.263V44.814a.923.923,0,0,1,.784-1.044.943.943,0,0,1,.26,0h1.994a.923.923,0,0,1,1.044.784.943.943,0,0,1,0,.26ZM139.387,55.5a12,12,0,0,1,.949-4.747,12.405,12.405,0,0,1,2.587-3.892,12.248,12.248,0,0,1,13.363-2.611,12.2,12.2,0,0,1,3.89,19.863A12.318,12.318,0,0,1,146.789,66.7a12.091,12.091,0,0,1-7.4-11.2Zm3.845,0a7.965,7.965,0,0,0,.664,3.228,8.8,8.8,0,0,0,1.78,2.658,8.285,8.285,0,0,0,2.635,1.8,8.181,8.181,0,0,0,6.456,0,8.542,8.542,0,0,0,4.462-4.462,8.181,8.181,0,0,0,0-6.456,8.929,8.929,0,0,0-1.8-2.682,8.407,8.407,0,0,0-2.658-1.827,8.137,8.137,0,0,0-9.091,1.827,9.135,9.135,0,0,0-1.78,2.682A7.971,7.971,0,0,0,143.232,55.5Z" id="svg_5" fill="#b6b6b6" fill-opacity="1" stroke="#919191" stroke-opacity="1"/><path class="c" d="M58.548,67.458a2.494,2.494,0,0,0-.356.023,2.972,2.972,0,0,1-.4.024,14.671,14.671,0,0,1-2.216-.166,4.286,4.286,0,0,1-1.894-.759,4.156,4.156,0,0,1-1.32-1.733,7.61,7.61,0,0,1-.5-3.038V47.568H49.007a1.527,1.527,0,0,1-.878-.214.942.942,0,0,1-.309-.831V44.767a.881.881,0,0,1,.309-.807,1.685,1.685,0,0,1,.878-.19h2.848V37.077a.915.915,0,0,1,.817-.949L55.12,35.8a.726.726,0,0,1,.744.379,2.108,2.108,0,0,1,.168.855v6.74h3.513q1.044,0,1.044,1.092v1.567q0,1.139-1.044,1.139H56.032V60.29a11.135,11.135,0,0,0,.119,1.851,1.939,1.939,0,0,0,.427,1,1.3,1.3,0,0,0,.783.4,8.26,8.26,0,0,0,1.187.071,1.049,1.049,0,0,1,1.187.89,1.062,1.062,0,0,1,0,.3v1.519Q59.735,67.363,58.548,67.458Zm14.051.19a10.226,10.226,0,0,1-4.367-.95,11.322,11.322,0,0,1-3.56-2.587,12.165,12.165,0,0,1-2.4-3.869,13.268,13.268,0,0,1,0-9.494,12.464,12.464,0,0,1,2.4-3.892,11.144,11.144,0,0,1,3.56-2.611A10.229,10.229,0,0,1,72.6,43.3a9.76,9.76,0,0,1,4.107.879,10.837,10.837,0,0,1,3.37,2.4,11.6,11.6,0,0,1,2.3,3.56,11.2,11.2,0,0,1,.855,4.367v.57q0,1.423-.9,1.8a5.6,5.6,0,0,1-2.184.38H65.574a7.455,7.455,0,0,0,2.4,4.594A6.706,6.706,0,0,0,72.6,63.612a8.434,8.434,0,0,0,2.872-.522,8.538,8.538,0,0,0,2.587-1.471,1.153,1.153,0,0,1,.854-.333.593.593,0,0,1,.522.285l1.329,1.994a.6.6,0,0,1,.19.432.945.945,0,0,1-.308.576,3.27,3.27,0,0,1-.5.384,20.145,20.145,0,0,1-3.466,1.9,10.306,10.306,0,0,1-4.08.791ZM65.764,53.739H79.2a8.687,8.687,0,0,0-.855-2.5,7.994,7.994,0,0,0-1.519-2.05,6.946,6.946,0,0,0-2.018-1.367,5.633,5.633,0,0,0-2.3-.5,5.571,5.571,0,0,0-2.326.5,6.691,6.691,0,0,0-1.97,1.367,8.72,8.72,0,0,0-1.519,2.05A9.3,9.3,0,0,0,65.764,53.739Zm30.427,1.092,7.643,11.2a2.813,2.813,0,0,1,.332.665c0,.254-.253.379-.759.379h-2.848a1.866,1.866,0,0,1-1.425-.806l-5.316-8.308L88.5,66.175a1.768,1.768,0,0,1-1.472.9H84.276q-.807,0-.807-.379a.917.917,0,0,1,.119-.333c.078-.158.166-.316.261-.474l7.595-11.06-7.026-10.3a1.047,1.047,0,0,1-.1-.474c0-.191.174-.285.522-.285h2.943a1.539,1.539,0,0,1,.879.213,3.623,3.623,0,0,1,.736.783L93.817,51.7l4.415-6.978a2.56,2.56,0,0,1,.688-.759,1.7,1.7,0,0,1,.878-.19h2.9q.428,0,.522.285a.629.629,0,0,1-.095.569Zm18.893,12.627a2.494,2.494,0,0,0-.356.023,2.972,2.972,0,0,1-.4.024,14.671,14.671,0,0,1-2.216-.166,4.282,4.282,0,0,1-1.893-.759,4.15,4.15,0,0,1-1.321-1.733,7.61,7.61,0,0,1-.5-3.038V47.568h-2.849a1.527,1.527,0,0,1-.878-.214.948.948,0,0,1-.308-.831V44.767a.881.881,0,0,1,.308-.807,1.7,1.7,0,0,1,.878-.19H108.4V37.077a.915.915,0,0,1,.816-.949l2.449-.332a.724.724,0,0,1,.743.379,2.108,2.108,0,0,1,.169.855v6.74h3.512q1.044,0,1.045,1.092v1.567q0,1.139-1.045,1.139h-3.512V60.29a11.134,11.134,0,0,0,.118,1.851,1.939,1.939,0,0,0,.427,1,1.3,1.3,0,0,0,.784.4,8.26,8.26,0,0,0,1.187.071,1.05,1.05,0,0,1,1.187,1.187v1.519Q116.271,67.364,115.084,67.458Zm4.556-2.612a2.919,2.919,0,0,1,.855-2.112,2.8,2.8,0,0,1,2.088-.878,2.858,2.858,0,0,1,2.136.878,3.037,3.037,0,0,1,0,4.225,2.858,2.858,0,0,1-2.136.878,2.8,2.8,0,0,1-2.088-.878A2.918,2.918,0,0,1,119.64,64.846Zm10.681-27.6a2.844,2.844,0,0,1,.878-2.095,2.979,2.979,0,0,1,5.1,2.095,2.809,2.809,0,0,1-.855,2.072,3.087,3.087,0,0,1-4.248,0,2.765,2.765,0,0,1-.875-2.075Zm5.031,7.571V66.033a.922.922,0,0,1-.781,1.044.892.892,0,0,1-.263,0h-1.994a.922.922,0,0,1-1.044-.781.892.892,0,0,1,0-.263V44.814a.923.923,0,0,1,.784-1.044.943.943,0,0,1,.26,0h1.994a.923.923,0,0,1,1.044.784.943.943,0,0,1,0,.26ZM139.387,55.5a12,12,0,0,1,.949-4.747,12.405,12.405,0,0,1,2.587-3.892,12.248,12.248,0,0,1,13.363-2.611,12.2,12.2,0,0,1,3.89,19.863A12.318,12.318,0,0,1,146.789,66.7a12.091,12.091,0,0,1-7.4-11.2Zm3.845,0a7.965,7.965,0,0,0,.664,3.228,8.8,8.8,0,0,0,1.78,2.658,8.285,8.285,0,0,0,2.635,1.8,8.181,8.181,0,0,0,6.456,0,8.542,8.542,0,0,0,4.462-4.462,8.181,8.181,0,0,0,0-6.456,8.929,8.929,0,0,0-1.8-2.682,8.407,8.407,0,0,0-2.658-1.827,8.137,8.137,0,0,0-9.091,1.827,9.135,9.135,0,0,0-1.78,2.682A7.971,7.971,0,0,0,143.232,55.5Z" fill="#b6b6b6" fill-opacity="1" stroke="#919191" stroke-opacity="1" id="svg_8"/><path class="c" d="M58.548,67.458a2.494,2.494,0,0,0-.356.023,2.972,2.972,0,0,1-.4.024,14.671,14.671,0,0,1-2.216-.166,4.286,4.286,0,0,1-1.894-.759,4.156,4.156,0,0,1-1.32-1.733,7.61,7.61,0,0,1-.5-3.038V47.568H49.007a1.527,1.527,0,0,1-.878-.214.942.942,0,0,1-.309-.831V44.767a.881.881,0,0,1,.309-.807,1.685,1.685,0,0,1,.878-.19h2.848V37.077a.915.915,0,0,1,.817-.949L55.12,35.8a.726.726,0,0,1,.744.379,2.108,2.108,0,0,1,.168.855v6.74h3.513q1.044,0,1.044,1.092v1.567q0,1.139-1.044,1.139H56.032V60.29a11.135,11.135,0,0,0,.119,1.851,1.939,1.939,0,0,0,.427,1,1.3,1.3,0,0,0,.783.4,8.26,8.26,0,0,0,1.187.071,1.049,1.049,0,0,1,1.187.89,1.062,1.062,0,0,1,0,.3v1.519Q59.735,67.363,58.548,67.458Zm14.051.19a10.226,10.226,0,0,1-4.367-.95,11.322,11.322,0,0,1-3.56-2.587,12.165,12.165,0,0,1-2.4-3.869,13.268,13.268,0,0,1,0-9.494,12.464,12.464,0,0,1,2.4-3.892,11.144,11.144,0,0,1,3.56-2.611A10.229,10.229,0,0,1,72.6,43.3a9.76,9.76,0,0,1,4.107.879,10.837,10.837,0,0,1,3.37,2.4,11.6,11.6,0,0,1,2.3,3.56,11.2,11.2,0,0,1,.855,4.367v.57q0,1.423-.9,1.8a5.6,5.6,0,0,1-2.184.38H65.574a7.455,7.455,0,0,0,2.4,4.594A6.706,6.706,0,0,0,72.6,63.612a8.434,8.434,0,0,0,2.872-.522,8.538,8.538,0,0,0,2.587-1.471,1.153,1.153,0,0,1,.854-.333.593.593,0,0,1,.522.285l1.329,1.994a.6.6,0,0,1,.19.432.945.945,0,0,1-.308.576,3.27,3.27,0,0,1-.5.384,20.145,20.145,0,0,1-3.466,1.9,10.306,10.306,0,0,1-4.08.791ZM65.764,53.739H79.2a8.687,8.687,0,0,0-.855-2.5,7.994,7.994,0,0,0-1.519-2.05,6.946,6.946,0,0,0-2.018-1.367,5.633,5.633,0,0,0-2.3-.5,5.571,5.571,0,0,0-2.326.5,6.691,6.691,0,0,0-1.97,1.367,8.72,8.72,0,0,0-1.519,2.05A9.3,9.3,0,0,0,65.764,53.739Zm30.427,1.092,7.643,11.2a2.813,2.813,0,0,1,.332.665c0,.254-.253.379-.759.379h-2.848a1.866,1.866,0,0,1-1.425-.806l-5.316-8.308L88.5,66.175a1.768,1.768,0,0,1-1.472.9H84.276q-.807,0-.807-.379a.917.917,0,0,1,.119-.333c.078-.158.166-.316.261-.474l7.595-11.06-7.026-10.3a1.047,1.047,0,0,1-.1-.474c0-.191.174-.285.522-.285h2.943a1.539,1.539,0,0,1,.879.213,3.623,3.623,0,0,1,.736.783L93.817,51.7l4.415-6.978a2.56,2.56,0,0,1,.688-.759,1.7,1.7,0,0,1,.878-.19h2.9q.428,0,.522.285a.629.629,0,0,1-.095.569Zm18.893,12.627a2.494,2.494,0,0,0-.356.023,2.972,2.972,0,0,1-.4.024,14.671,14.671,0,0,1-2.216-.166,4.282,4.282,0,0,1-1.893-.759,4.15,4.15,0,0,1-1.321-1.733,7.61,7.61,0,0,1-.5-3.038V47.568h-2.849a1.527,1.527,0,0,1-.878-.214.948.948,0,0,1-.308-.831V44.767a.881.881,0,0,1,.308-.807,1.7,1.7,0,0,1,.878-.19H108.4V37.077a.915.915,0,0,1,.816-.949l2.449-.332a.724.724,0,0,1,.743.379,2.108,2.108,0,0,1,.169.855v6.74h3.512q1.044,0,1.045,1.092v1.567q0,1.139-1.045,1.139h-3.512V60.29a11.134,11.134,0,0,0,.118,1.851,1.939,1.939,0,0,0,.427,1,1.3,1.3,0,0,0,.784.4,8.26,8.26,0,0,0,1.187.071,1.05,1.05,0,0,1,1.187,1.187v1.519Q116.271,67.364,115.084,67.458Zm4.556-2.612a2.919,2.919,0,0,1,.855-2.112,2.8,2.8,0,0,1,2.088-.878,2.858,2.858,0,0,1,2.136.878,3.037,3.037,0,0,1,0,4.225,2.858,2.858,0,0,1-2.136.878,2.8,2.8,0,0,1-2.088-.878A2.918,2.918,0,0,1,119.64,64.846Zm10.681-27.6a2.844,2.844,0,0,1,.878-2.095,2.979,2.979,0,0,1,5.1,2.095,2.809,2.809,0,0,1-.855,2.072,3.087,3.087,0,0,1-4.248,0,2.765,2.765,0,0,1-.875-2.075Zm5.031,7.571V66.033a.922.922,0,0,1-.781,1.044.892.892,0,0,1-.263,0h-1.994a.922.922,0,0,1-1.044-.781.892.892,0,0,1,0-.263V44.814a.923.923,0,0,1,.784-1.044.943.943,0,0,1,.26,0h1.994a.923.923,0,0,1,1.044.784.943.943,0,0,1,0,.26ZM139.387,55.5a12,12,0,0,1,.949-4.747,12.405,12.405,0,0,1,2.587-3.892,12.248,12.248,0,0,1,13.363-2.611,12.2,12.2,0,0,1,3.89,19.863A12.318,12.318,0,0,1,146.789,66.7a12.091,12.091,0,0,1-7.4-11.2Zm3.845,0a7.965,7.965,0,0,0,.664,3.228,8.8,8.8,0,0,0,1.78,2.658,8.285,8.285,0,0,0,2.635,1.8,8.181,8.181,0,0,0,6.456,0,8.542,8.542,0,0,0,4.462-4.462,8.181,8.181,0,0,0,0-6.456,8.929,8.929,0,0,0-1.8-2.682,8.407,8.407,0,0,0-2.658-1.827,8.137,8.137,0,0,0-9.091,1.827,9.135,9.135,0,0,0-1.78,2.682A7.971,7.971,0,0,0,143.232,55.5Z" fill="#b6b6b6" fill-opacity="1" stroke="#484848" stroke-opacity="1" id="svg_9"/><path class="b" d="M42.2,67.3a1.874,1.874,0,0,1-1.874-1.874h0V45.589a1.874,1.874,0,0,1,3.748,0h0V65.428A1.874,1.874,0,0,1,42.2,67.3Z" id="svg_6" stroke="#484848" stroke-opacity="1"/><circle class="b" cx="42.198001861572266" cy="37.196998596191406" r="2.9649999141693115" id="svg_7" stroke="#484848" stroke-opacity="1" transform="translate(-0.5586592555046082,0) "/></g></svg>